<svg xmlns="http://www.w3.org/2000/svg" xmlns:xlink="http://www.w3.org/1999/xlink" version="1.1" data-diagram-type="SEQUENCE" style="width:2349px;height:1552px;background:#0D1117;" width="2349px" height="1552px" viewBox="0 0 2349 1552" zoomAndPan="magnify" preserveAspectRatio="none" contentStyleType="text/css"><?plantuml 1.2026.8?><defs/><g font-family="sans-serif" lengthAdjust="spacing"><rect x="0" y="0" width="2349" height="1552" fill="#0D1117" style="stroke:none;"/><g class="title" data-source-line="2"><text x="1017.778" y="29.533" fill="#FFF" font-size="14" textLength="311.63" font-weight="700">VIDEX — Video Processing Runtime Sequence</text></g><rect x="1702.421" y="996.711" width="273.45" height="169.594" fill="none" style="stroke:#000;stroke-width:1.5;"/><g><title>User</title><rect x="24.279" y="126.219" width="8" height="1337.25" fill="#000" fill-opacity="0"/><line x1="27.779" y1="126.219" x2="27.779" y2="1463.469" style="stroke:#181818;stroke-width:0.5;stroke-dasharray:5,5;"/></g><g><title>React UI</title><rect x="124.166" y="126.219" width="8" height="1337.25" fill="#000" fill-opacity="0"/><line x1="127.666" y1="126.219" x2="127.666" y2="1463.469" style="stroke:#181818;stroke-width:0.5;stroke-dasharray:5,5;"/></g><g><title>FastAPI</title><rect x="370.34" y="126.219" width="8" height="1337.25" fill="#000" fill-opacity="0"/><line x1="373.84" y1="126.219" x2="373.84" y2="1463.469" style="stroke:#181818;stroke-width:0.5;stroke-dasharray:5,5;"/></g><g><title>Job Queue</title><rect x="520.798" y="126.219" width="8" height="1337.25" fill="#000" fill-opacity="0"/><line x1="524.298" y1="126.219" x2="524.298" y2="1463.469" style="stroke:#181818;stroke-width:0.5;stroke-dasharray:5,5;"/></g><g><title>Ingestion</title><rect x="638.73" y="126.219" width="8" height="1337.25" fill="#000" fill-opacity="0"/><line x1="642.23" y1="126.219" x2="642.23" y2="1463.469" style="stroke:#181818;stroke-width:0.5;stroke-dasharray:5,5;"/></g><g><title>Scene Detector</title><rect x="767.53" y="126.219" width="8" height="1337.25" fill="#000" fill-opacity="0"/><line x1="771.03" y1="126.219" x2="771.03" y2="1463.469" style="stroke:#181818;stroke-width:0.5;stroke-dasharray:5,5;"/></g><g><title>Frame Router</title><rect x="882.958" y="126.219" width="8" height="1337.25" fill="#000" fill-opacity="0"/><line x1="886.458" y1="126.219" x2="886.458" y2="1463.469" style="stroke:#181818;stroke-width:0.5;stroke-dasharray:5,5;"/></g><g><title>Detector</title><rect x="989.331" y="126.219" width="8" height="1337.25" fill="#000" fill-opacity="0"/><line x1="992.831" y1="126.219" x2="992.831" y2="1463.469" style="stroke:#181818;stroke-width:0.5;stroke-dasharray:5,5;"/></g><g><title>Tracker</title><rect x="1063.51" y="126.219" width="8" height="1337.25" fill="#000" fill-opacity="0"/><line x1="1067.01" y1="126.219" x2="1067.01" y2="1463.469" style="stroke:#181818;stroke-width:0.5;stroke-dasharray:5,5;"/></g><g><title>OCR Router</title><rect x="1149.745" y="126.219" width="8" height="1337.25" fill="#000" fill-opacity="0"/><line x1="1153.245" y1="126.219" x2="1153.245" y2="1463.469" style="stroke:#181818;stroke-width:0.5;stroke-dasharray:5,5;"/></g><g><title>ASR</title><rect x="1226.648" y="126.219" width="8" height="1337.25" fill="#000" fill-opacity="0"/><line x1="1230.148" y1="126.219" x2="1230.148" y2="1463.469" style="stroke:#181818;stroke-width:0.5;stroke-dasharray:5,5;"/></g><g><title>Evidence Store</title><rect x="1372.79" y="126.219" width="8" height="1337.25" fill="#000" fill-opacity="0"/><line x1="1376.29" y1="126.219" x2="1376.29" y2="1463.469" style="stroke:#181818;stroke-width:0.5;stroke-dasharray:5,5;"/></g><g><title>Temporal Engine</title><rect x="1552.878" y="126.219" width="8" height="1337.25" fill="#000" fill-opacity="0"/><line x1="1556.378" y1="126.219" x2="1556.378" y2="1463.469" style="stroke:#181818;stroke-width:0.5;stroke-dasharray:5,5;"/></g><g><title>Semantic Router</title><rect x="1714.921" y="126.219" width="8" height="1337.25" fill="#000" fill-opacity="0"/><line x1="1718.421" y1="126.219" x2="1718.421" y2="1463.469" style="stroke:#181818;stroke-width:0.5;stroke-dasharray:5,5;"/></g><g><title>Qwen3-VL</title><rect x="1859.603" y="126.219" width="8" height="1337.25" fill="#000" fill-opacity="0"/><line x1="1863.103" y1="126.219" x2="1863.103" y2="1463.469" style="stroke:#181818;stroke-width:0.5;stroke-dasharray:5,5;"/></g><g><title>InternVideo3</title><rect x="1956.371" y="126.219" width="8" height="1337.25" fill="#000" fill-opacity="0"/><line x1="1959.871" y1="126.219" x2="1959.871" y2="1463.469" style="stroke:#181818;stroke-width:0.5;stroke-dasharray:5,5;"/></g><g><title>Event Fusion</title><rect x="2060.922" y="126.219" width="8" height="1337.25" fill="#000" fill-opacity="0"/><line x1="2064.422" y1="126.219" x2="2064.422" y2="1463.469" style="stroke:#181818;stroke-width:0.5;stroke-dasharray:5,5;"/></g><g><title>Evidence Graph</title><rect x="2281.49" y="126.219" width="8" height="1337.25" fill="#000" fill-opacity="0"/><line x1="2284.99" y1="126.219" x2="2284.99" y2="1463.469" style="stroke:#181818;stroke-width:0.5;stroke-dasharray:5,5;"/></g><text x="10" y="123.143" fill="#FFF" font-size="14" textLength="29.559">User</text><ellipse cx="27.779" cy="57.109" rx="8" ry="8" fill="#E2E2F0" style="stroke:#181818;stroke-width:0.5;"/><path d="M27.779,65.109 L27.779,92.109 M14.779,73.109 L40.779,73.109 M27.779,92.109 L14.779,107.109 M27.779,92.109 L40.779,107.109" style="stroke:#181818;stroke-width:0.5;" fill="none"/><rect x="93.435" y="93.609" width="68.462" height="31.609" fill="#E2E2F0" style="stroke:#181818;stroke-width:0.5;" rx="2.5" ry="2.5"/><text x="100.435" y="115.143" fill="#FFF" font-size="14" textLength="54.462">React UI</text><rect x="341.943" y="93.609" width="63.793" height="31.609" fill="#E2E2F0" style="stroke:#181818;stroke-width:0.5;" rx="2.5" ry="2.5"/><text x="348.943" y="115.143" fill="#FFF" font-size="14" textLength="49.793">FastAPI</text><rect x="483.05" y="93.609" width="82.496" height="31.609" fill="#E2E2F0" style="stroke:#181818;stroke-width:0.5;" rx="2.5" ry="2.5"/><text x="490.05" y="115.143" fill="#FFF" font-size="14" textLength="68.496">Job Queue</text><rect x="606.82" y="93.609" width="70.82" height="31.609" fill="#E2E2F0" style="stroke:#181818;stroke-width:0.5;" rx="2.5" ry="2.5"/><text x="613.82" y="115.143" fill="#FFF" font-size="14" textLength="56.82">Ingestion</text><rect x="715.782" y="93.609" width="110.496" height="31.609" fill="#E2E2F0" style="stroke:#181818;stroke-width:0.5;" rx="2.5" ry="2.5"/><text x="722.782" y="115.143" fill="#FFF" font-size="14" textLength="96.496">Scene Detector</text><rect x="836.278" y="93.609" width="100.358" height="31.609" fill="#E2E2F0" style="stroke:#181818;stroke-width:0.5;" rx="2.5" ry="2.5"/><text x="843.278" y="115.143" fill="#FFF" font-size="14" textLength="86.358">Frame Router</text><rect x="959.376" y="93.609" width="66.91" height="31.609" fill="#E2E2F0" style="stroke:#181818;stroke-width:0.5;" rx="2.5" ry="2.5"/><text x="966.376" y="115.143" fill="#FFF" font-size="14" textLength="52.91">Detector</text><rect x="1036.286" y="93.609" width="61.448" height="31.609" fill="#E2E2F0" style="stroke:#181818;stroke-width:0.5;" rx="2.5" ry="2.5"/><text x="1043.286" y="115.143" fill="#FFF" font-size="14" textLength="47.448">Tracker</text><rect x="1107.734" y="93.609" width="91.021" height="31.609" fill="#E2E2F0" style="stroke:#181818;stroke-width:0.5;" rx="2.5" ry="2.5"/><text x="1114.734" y="115.143" fill="#FFF" font-size="14" textLength="77.021">OCR Router</text><rect x="1208.755" y="93.609" width="42.786" height="31.609" fill="#E2E2F0" style="stroke:#181818;stroke-width:0.5;" rx="2.5" ry="2.5"/><text x="1215.755" y="115.143" fill="#FFF" font-size="14" textLength="28.786">ASR</text><text x="1325.817" y="123.143" fill="#FFF" font-size="14" textLength="94.944">Evidence Store</text><path d="M1358.29,72.609 C1358.29,62.609 1376.29,62.609 1376.29,62.609 C1376.29,62.609 1394.29,62.609 1394.29,72.609 L1394.29,98.609 C1394.29,108.609 1376.29,108.609 1376.29,108.609 C1376.29,108.609 1358.29,108.609 1358.29,98.609 L1358.29,72.609" style="stroke:#181818;stroke-width:0.5;" fill="#E2E2F0"/><path d="M1358.29,72.609 C1358.29,82.609 1376.29,82.609 1376.29,82.609 C1376.29,82.609 1394.29,82.609 1394.29,72.609" style="stroke:#181818;stroke-width:0.5;" fill="none"/><rect x="1496.072" y="93.609" width="120.613" height="31.609" fill="#E2E2F0" style="stroke:#181818;stroke-width:0.5;" rx="2.5" ry="2.5"/><text x="1503.072" y="115.143" fill="#FFF" font-size="14" textLength="106.613">Temporal Engine</text><rect x="1659.287" y="93.609" width="118.269" height="31.609" fill="#E2E2F0" style="stroke:#181818;stroke-width:0.5;" rx="2.5" ry="2.5"/><text x="1666.287" y="115.143" fill="#FFF" font-size="14" textLength="104.269">Semantic Router</text><rect x="1823.03" y="93.609" width="80.145" height="31.609" fill="#E2E2F0" style="stroke:#181818;stroke-width:0.5;" rx="2.5" ry="2.5"/><text x="1830.03" y="115.143" fill="#FFF" font-size="14" textLength="66.145">Qwen3-VL</text><rect x="1913.175" y="93.609" width="93.393" height="31.609" fill="#E2E2F0" style="stroke:#181818;stroke-width:0.5;" rx="2.5" ry="2.5"/><text x="1920.175" y="115.143" fill="#FFF" font-size="14" textLength="79.393">InternVideo3</text><rect x="2016.567" y="93.609" width="95.71" height="31.609" fill="#E2E2F0" style="stroke:#181818;stroke-width:0.5;" rx="2.5" ry="2.5"/><text x="2023.567" y="115.143" fill="#FFF" font-size="14" textLength="81.71">Event Fusion</text><text x="2231.794" y="123.143" fill="#FFF" font-size="14" textLength="100.393">Evidence Graph</text><path d="M2266.99,72.609 C2266.99,62.609 2284.99,62.609 2284.99,62.609 C2284.99,62.609 2302.99,62.609 2302.99,72.609 L2302.99,98.609 C2302.99,108.609 2284.99,108.609 2284.99,108.609 C2284.99,108.609 2266.99,108.609 2266.99,98.609 L2266.99,72.609" style="stroke:#181818;stroke-width:0.5;" fill="#E2E2F0"/><path d="M2266.99,72.609 C2266.99,82.609 2284.99,82.609 2284.99,82.609 C2284.99,82.609 2302.99,82.609 2302.99,72.609" style="stroke:#181818;stroke-width:0.5;" fill="none"/><text x="10" y="1478.002" fill="#FFF" font-size="14" textLength="29.559">User</text><ellipse cx="27.779" cy="1489.578" rx="8" ry="8" fill="#E2E2F0" style="stroke:#181818;stroke-width:0.5;"/><path d="M27.779,1497.578 L27.779,1524.578 M14.779,1505.578 L40.779,1505.578 M27.779,1524.578 L14.779,1539.578 M27.779,1524.578 L40.779,1539.578" style="stroke:#181818;stroke-width:0.5;" fill="none"/><rect x="93.435" y="1463.469" width="68.462" height="31.609" fill="#E2E2F0" style="stroke:#181818;stroke-width:0.5;" rx="2.5" ry="2.5"/><text x="100.435" y="1485.002" fill="#FFF" font-size="14" textLength="54.462">React UI</text><rect x="341.943" y="1463.469" width="63.793" height="31.609" fill="#E2E2F0" style="stroke:#181818;stroke-width:0.5;" rx="2.5" ry="2.5"/><text x="348.943" y="1485.002" fill="#FFF" font-size="14" textLength="49.793">FastAPI</text><rect x="483.05" y="1463.469" width="82.496" height="31.609" fill="#E2E2F0" style="stroke:#181818;stroke-width:0.5;" rx="2.5" ry="2.5"/><text x="490.05" y="1485.002" fill="#FFF" font-size="14" textLength="68.496">Job Queue</text><rect x="606.82" y="1463.469" width="70.82" height="31.609" fill="#E2E2F0" style="stroke:#181818;stroke-width:0.5;" rx="2.5" ry="2.5"/><text x="613.82" y="1485.002" fill="#FFF" font-size="14" textLength="56.82">Ingestion</text><rect x="715.782" y="1463.469" width="110.496" height="31.609" fill="#E2E2F0" style="stroke:#181818;stroke-width:0.5;" rx="2.5" ry="2.5"/><text x="722.782" y="1485.002" fill="#FFF" font-size="14" textLength="96.496">Scene Detector</text><rect x="836.278" y="1463.469" width="100.358" height="31.609" fill="#E2E2F0" style="stroke:#181818;stroke-width:0.5;" rx="2.5" ry="2.5"/><text x="843.278" y="1485.002" fill="#FFF" font-size="14" textLength="86.358">Frame Router</text><rect x="959.376" y="1463.469" width="66.91" height="31.609" fill="#E2E2F0" style="stroke:#181818;stroke-width:0.5;" rx="2.5" ry="2.5"/><text x="966.376" y="1485.002" fill="#FFF" font-size="14" textLength="52.91">Detector</text><rect x="1036.286" y="1463.469" width="61.448" height="31.609" fill="#E2E2F0" style="stroke:#181818;stroke-width:0.5;" rx="2.5" ry="2.5"/><text x="1043.286" y="1485.002" fill="#FFF" font-size="14" textLength="47.448">Tracker</text><rect x="1107.734" y="1463.469" width="91.021" height="31.609" fill="#E2E2F0" style="stroke:#181818;stroke-width:0.5;" rx="2.5" ry="2.5"/><text x="1114.734" y="1485.002" fill="#FFF" font-size="14" textLength="77.021">OCR Router</text><rect x="1208.755" y="1463.469" width="42.786" height="31.609" fill="#E2E2F0" style="stroke:#181818;stroke-width:0.5;" rx="2.5" ry="2.5"/><text x="1215.755" y="1485.002" fill="#FFF" font-size="14" textLength="28.786">ASR</text><text x="1325.817" y="1478.002" fill="#FFF" font-size="14" textLength="94.944">Evidence Store</text><path d="M1358.29,1491.078 C1358.29,1481.078 1376.29,1481.078 1376.29,1481.078 C1376.29,1481.078 1394.29,1481.078 1394.29,1491.078 L1394.29,1517.078 C1394.29,1527.078 1376.29,1527.078 1376.29,1527.078 C1376.29,1527.078 1358.29,1527.078 1358.29,1517.078 L1358.29,1491.078" style="stroke:#181818;stroke-width:0.5;" fill="#E2E2F0"/><path d="M1358.29,1491.078 C1358.29,1501.078 1376.29,1501.078 1376.29,1501.078 C1376.29,1501.078 1394.29,1501.078 1394.29,1491.078" style="stroke:#181818;stroke-width:0.5;" fill="none"/><rect x="1496.072" y="1463.469" width="120.613" height="31.609" fill="#E2E2F0" style="stroke:#181818;stroke-width:0.5;" rx="2.5" ry="2.5"/><text x="1503.072" y="1485.002" fill="#FFF" font-size="14" textLength="106.613">Temporal Engine</text><rect x="1659.287" y="1463.469" width="118.269" height="31.609" fill="#E2E2F0" style="stroke:#181818;stroke-width:0.5;" rx="2.5" ry="2.5"/><text x="1666.287" y="1485.002" fill="#FFF" font-size="14" textLength="104.269">Semantic Router</text><rect x="1823.03" y="1463.469" width="80.145" height="31.609" fill="#E2E2F0" style="stroke:#181818;stroke-width:0.5;" rx="2.5" ry="2.5"/><text x="1830.03" y="1485.002" fill="#FFF" font-size="14" textLength="66.145">Qwen3-VL</text><rect x="1913.175" y="1463.469" width="93.393" height="31.609" fill="#E2E2F0" style="stroke:#181818;stroke-width:0.5;" rx="2.5" ry="2.5"/><text x="1920.175" y="1485.002" fill="#FFF" font-size="14" textLength="79.393">InternVideo3</text><rect x="2016.567" y="1463.469" width="95.71" height="31.609" fill="#E2E2F0" style="stroke:#181818;stroke-width:0.5;" rx="2.5" ry="2.5"/><text x="2023.567" y="1485.002" fill="#FFF" font-size="14" textLength="81.71">Event Fusion</text><text x="2231.794" y="1478.002" fill="#FFF" font-size="14" textLength="100.393">Evidence Graph</text><path d="M2266.99,1491.078 C2266.99,1481.078 2284.99,1481.078 2284.99,1481.078 C2284.99,1481.078 2302.99,1481.078 2302.99,1491.078 L2302.99,1517.078 C2302.99,1527.078 2284.99,1527.078 2284.99,1527.078 C2284.99,1527.078 2266.99,1527.078 2266.99,1517.078 L2266.99,1491.078" style="stroke:#181818;stroke-width:0.5;" fill="#E2E2F0"/><path d="M2266.99,1491.078 C2266.99,1501.078 2284.99,1501.078 2284.99,1501.078 C2284.99,1501.078 2302.99,1501.078 2302.99,1491.078" style="stroke:#181818;stroke-width:0.5;" fill="none"/><polygon points="115.666,152.57,125.666,156.57,115.666,160.57,119.666,156.57" fill="#9CA3AF" style="stroke:#9CA3AF;stroke-width:1;stroke-linejoin:miter;stroke-miterlimit:10;"/><line x1="27.779" y1="156.57" x2="121.666" y2="156.57" style="stroke:#9CA3AF;stroke-width:1;"/><text x="34.779" y="151.714" fill="#FFF" font-size="13" textLength="75.886">Upload video</text><polygon points="361.84,182.922,371.84,186.922,361.84,190.922,365.84,186.922" fill="#9CA3AF" style="stroke:#9CA3AF;stroke-width:1;stroke-linejoin:miter;stroke-miterlimit:10;"/><line x1="127.666" y1="186.922" x2="367.84" y2="186.922" style="stroke:#9CA3AF;stroke-width:1;"/><text x="134.666" y="182.065" fill="#FFF" font-size="13" textLength="80.196">POST /videos</text><polygon points="630.23,213.273,640.23,217.273,630.23,221.273,634.23,217.273" fill="#9CA3AF" style="stroke:#9CA3AF;stroke-width:1;stroke-linejoin:miter;stroke-miterlimit:10;"/><line x1="373.84" y1="217.273" x2="636.23" y2="217.273" style="stroke:#9CA3AF;stroke-width:1;"/><text x="380.84" y="212.417" fill="#FFF" font-size="13" textLength="137.674">Validate + inspect video</text><polygon points="384.84,243.625,374.84,247.625,384.84,251.625,380.84,247.625" fill="#9CA3AF" style="stroke:#9CA3AF;stroke-width:1;stroke-linejoin:miter;stroke-miterlimit:10;"/><line x1="378.84" y1="247.625" x2="641.23" y2="247.625" style="stroke:#9CA3AF;stroke-width:1;stroke-dasharray:2,2;"/><text x="390.84" y="242.769" fill="#FFF" font-size="13" textLength="91.063">Video metadata</text><polygon points="512.298,273.977,522.298,277.977,512.298,281.977,516.298,277.977" fill="#9CA3AF" style="stroke:#9CA3AF;stroke-width:1;stroke-linejoin:miter;stroke-miterlimit:10;"/><line x1="373.84" y1="277.977" x2="518.298" y2="277.977" style="stroke:#9CA3AF;stroke-width:1;"/><text x="380.84" y="273.12" fill="#FFF" font-size="13" textLength="126.458">Create processing job</text><polygon points="384.84,304.328,374.84,308.328,384.84,312.328,380.84,308.328" fill="#9CA3AF" style="stroke:#9CA3AF;stroke-width:1;stroke-linejoin:miter;stroke-miterlimit:10;"/><line x1="378.84" y1="308.328" x2="523.298" y2="308.328" style="stroke:#9CA3AF;stroke-width:1;stroke-dasharray:2,2;"/><text x="390.84" y="303.472" fill="#FFF" font-size="13" textLength="34.696">job_id</text><polygon points="138.666,334.68,128.666,338.68,138.666,342.68,134.666,338.68" fill="#9CA3AF" style="stroke:#9CA3AF;stroke-width:1;stroke-linejoin:miter;stroke-miterlimit:10;"/><line x1="132.666" y1="338.68" x2="372.84" y2="338.68" style="stroke:#9CA3AF;stroke-width:1;stroke-dasharray:2,2;"/><text x="144.666" y="333.823" fill="#FFF" font-size="13" textLength="129.016">202 Accepted + job_id</text><polygon points="630.23,365.031,640.23,369.031,630.23,373.031,634.23,369.031" fill="#9CA3AF" style="stroke:#9CA3AF;stroke-width:1;stroke-linejoin:miter;stroke-miterlimit:10;"/><line x1="524.298" y1="369.031" x2="636.23" y2="369.031" style="stroke:#9CA3AF;stroke-width:1;"/><text x="531.298" y="364.175" fill="#FFF" font-size="13" textLength="93.933">Start processing</text><polygon points="759.03,395.383,769.03,399.383,759.03,403.383,763.03,399.383" fill="#9CA3AF" style="stroke:#9CA3AF;stroke-width:1;stroke-linejoin:miter;stroke-miterlimit:10;"/><line x1="642.23" y1="399.383" x2="765.03" y2="399.383" style="stroke:#9CA3AF;stroke-width:1;"/><text x="649.23" y="394.526" fill="#FFF" font-size="13" textLength="82.374">Detect scenes</text><polygon points="653.23,425.734,643.23,429.734,653.23,433.734,649.23,429.734" fill="#9CA3AF" style="stroke:#9CA3AF;stroke-width:1;stroke-linejoin:miter;stroke-miterlimit:10;"/><line x1="647.23" y1="429.734" x2="770.03" y2="429.734" style="stroke:#9CA3AF;stroke-width:1;stroke-dasharray:2,2;"/><text x="659.23" y="424.878" fill="#FFF" font-size="13" textLength="104.8">Scene boundaries</text><polygon points="874.458,456.086,884.458,460.086,874.458,464.086,878.458,460.086" fill="#9CA3AF" style="stroke:#9CA3AF;stroke-width:1;stroke-linejoin:miter;stroke-miterlimit:10;"/><line x1="642.23" y1="460.086" x2="880.458" y2="460.086" style="stroke:#9CA3AF;stroke-width:1;"/><text x="649.23" y="455.229" fill="#FFF" font-size="13" textLength="78.032">Route frames</text><polygon points="980.831,486.438,990.831,490.438,980.831,494.438,984.831,490.438" fill="#9CA3AF" style="stroke:#9CA3AF;stroke-width:1;stroke-linejoin:miter;stroke-miterlimit:10;"/><line x1="886.458" y1="490.438" x2="986.831" y2="490.438" style="stroke:#9CA3AF;stroke-width:1;"/><text x="893.458" y="485.581" fill="#FFF" font-size="13" textLength="82.374">Detect objects</text><polygon points="897.458,516.789,887.458,520.789,897.458,524.789,893.458,520.789" fill="#9CA3AF" style="stroke:#9CA3AF;stroke-width:1;stroke-linejoin:miter;stroke-miterlimit:10;"/><line x1="891.458" y1="520.789" x2="991.831" y2="520.789" style="stroke:#9CA3AF;stroke-width:1;stroke-dasharray:2,2;"/><text x="903.458" y="515.933" fill="#FFF" font-size="13" textLength="61.42">Detections</text><polygon points="1055.01,547.141,1065.01,551.141,1055.01,555.141,1059.01,551.141" fill="#9CA3AF" style="stroke:#9CA3AF;stroke-width:1;stroke-linejoin:miter;stroke-miterlimit:10;"/><line x1="886.458" y1="551.141" x2="1061.01" y2="551.141" style="stroke:#9CA3AF;stroke-width:1;"/><text x="893.458" y="546.284" fill="#FFF" font-size="13" textLength="80.203">Update tracks</text><polygon points="897.458,577.492,887.458,581.492,897.458,585.492,893.458,581.492" fill="#9CA3AF" style="stroke:#9CA3AF;stroke-width:1;stroke-linejoin:miter;stroke-miterlimit:10;"/><line x1="891.458" y1="581.492" x2="1066.01" y2="581.492" style="stroke:#9CA3AF;stroke-width:1;stroke-dasharray:2,2;"/><text x="903.458" y="576.636" fill="#FFF" font-size="13" textLength="70.795">Track states</text><polygon points="1141.245,607.844,1151.245,611.844,1141.245,615.844,1145.245,611.844" fill="#9CA3AF" style="stroke:#9CA3AF;stroke-width:1;stroke-linejoin:miter;stroke-miterlimit:10;"/><line x1="886.458" y1="611.844" x2="1147.245" y2="611.844" style="stroke:#9CA3AF;stroke-width:1;"/><text x="893.458" y="606.987" fill="#FFF" font-size="13" textLength="124.262">OCR selected frames</text><polygon points="897.458,638.195,887.458,642.195,897.458,646.195,893.458,642.195" fill="#9CA3AF" style="stroke:#9CA3AF;stroke-width:1;stroke-linejoin:miter;stroke-miterlimit:10;"/><line x1="891.458" y1="642.195" x2="1152.245" y2="642.195" style="stroke:#9CA3AF;stroke-width:1;stroke-dasharray:2,2;"/><text x="903.458" y="637.339" fill="#FFF" font-size="13" textLength="106.209">OCR observations</text><polygon points="1218.148,668.547,1228.148,672.547,1218.148,676.547,1222.148,672.547" fill="#9CA3AF" style="stroke:#9CA3AF;stroke-width:1;stroke-linejoin:miter;stroke-miterlimit:10;"/><line x1="642.23" y1="672.547" x2="1224.148" y2="672.547" style="stroke:#9CA3AF;stroke-width:1;"/><text x="649.23" y="667.69" fill="#FFF" font-size="13" textLength="136.563">Extract/transcribe audio</text><polygon points="653.23,698.898,643.23,702.898,653.23,706.898,649.23,702.898" fill="#9CA3AF" style="stroke:#9CA3AF;stroke-width:1;stroke-linejoin:miter;stroke-miterlimit:10;"/><line x1="647.23" y1="702.898" x2="1229.148" y2="702.898" style="stroke:#9CA3AF;stroke-width:1;stroke-dasharray:2,2;"/><text x="659.23" y="698.042" fill="#FFF" font-size="13" textLength="135.821">Timestamped transcript</text><polygon points="1364.29,729.25,1374.29,733.25,1364.29,737.25,1368.29,733.25" fill="#9CA3AF" style="stroke:#9CA3AF;stroke-width:1;stroke-linejoin:miter;stroke-miterlimit:10;"/><line x1="886.458" y1="733.25" x2="1370.29" y2="733.25" style="stroke:#9CA3AF;stroke-width:1;"/><text x="893.458" y="728.394" fill="#FFF" font-size="13" textLength="164.728">Store detections/tracks/OCR</text><polygon points="1364.29,759.602,1374.29,763.602,1364.29,767.602,1368.29,763.602" fill="#9CA3AF" style="stroke:#9CA3AF;stroke-width:1;stroke-linejoin:miter;stroke-miterlimit:10;"/><line x1="1230.148" y1="763.602" x2="1370.29" y2="763.602" style="stroke:#9CA3AF;stroke-width:1;"/><text x="1237.148" y="758.745" fill="#FFF" font-size="13" textLength="122.142">Store audio evidence</text><polygon points="1364.29,789.953,1374.29,793.953,1364.29,797.953,1368.29,793.953" fill="#9CA3AF" style="stroke:#9CA3AF;stroke-width:1;stroke-linejoin:miter;stroke-miterlimit:10;"/><line x1="771.03" y1="793.953" x2="1370.29" y2="793.953" style="stroke:#9CA3AF;stroke-width:1;"/><text x="778.03" y="789.097" fill="#FFF" font-size="13" textLength="125.023">Store scene evidence</text><polygon points="1544.378,820.305,1554.378,824.305,1544.378,828.305,1548.378,824.305" fill="#9CA3AF" style="stroke:#9CA3AF;stroke-width:1;stroke-linejoin:miter;stroke-miterlimit:10;"/><line x1="1376.29" y1="824.305" x2="1550.378" y2="824.305" style="stroke:#9CA3AF;stroke-width:1;"/><text x="1383.29" y="819.448" fill="#FFF" font-size="13" textLength="156.089">Analyze temporal evidence</text><line x1="1556.378" y1="854.656" x2="1598.378" y2="854.656" style="stroke:#9CA3AF;stroke-width:1;stroke-dasharray:2,2;"/><line x1="1598.378" y1="854.656" x2="1598.378" y2="867.656" style="stroke:#9CA3AF;stroke-width:1;stroke-dasharray:2,2;"/><line x1="1557.378" y1="867.656" x2="1598.378" y2="867.656" style="stroke:#9CA3AF;stroke-width:1;stroke-dasharray:2,2;"/><polygon points="1567.378,863.656,1557.378,867.656,1567.378,871.656,1563.378,867.656" fill="#9CA3AF" style="stroke:#9CA3AF;stroke-width:1;stroke-linejoin:miter;stroke-miterlimit:10;"/><text x="1563.378" y="849.8" fill="#FFF" font-size="13" textLength="60.69">Movement</text><line x1="1556.378" y1="898.008" x2="1598.378" y2="898.008" style="stroke:#9CA3AF;stroke-width:1;stroke-dasharray:2,2;"/><line x1="1598.378" y1="898.008" x2="1598.378" y2="911.008" style="stroke:#9CA3AF;stroke-width:1;stroke-dasharray:2,2;"/><line x1="1557.378" y1="911.008" x2="1598.378" y2="911.008" style="stroke:#9CA3AF;stroke-width:1;stroke-dasharray:2,2;"/><polygon points="1567.378,907.008,1557.378,911.008,1567.378,915.008,1563.378,911.008" fill="#9CA3AF" style="stroke:#9CA3AF;stroke-width:1;stroke-linejoin:miter;stroke-miterlimit:10;"/><text x="1563.378" y="893.151" fill="#FFF" font-size="13" textLength="50.578">Lifecycle</text><line x1="1556.378" y1="941.359" x2="1598.378" y2="941.359" style="stroke:#9CA3AF;stroke-width:1;stroke-dasharray:2,2;"/><line x1="1598.378" y1="941.359" x2="1598.378" y2="954.359" style="stroke:#9CA3AF;stroke-width:1;stroke-dasharray:2,2;"/><line x1="1557.378" y1="954.359" x2="1598.378" y2="954.359" style="stroke:#9CA3AF;stroke-width:1;stroke-dasharray:2,2;"/><polygon points="1567.378,950.359,1557.378,954.359,1567.378,958.359,1563.378,954.359" fill="#9CA3AF" style="stroke:#9CA3AF;stroke-width:1;stroke-linejoin:miter;stroke-miterlimit:10;"/><text x="1563.378" y="936.503" fill="#FFF" font-size="13" textLength="101.182">Candidate events</text><polygon points="1706.421,980.711,1716.421,984.711,1706.421,988.711,1710.421,984.711" fill="#9CA3AF" style="stroke:#9CA3AF;stroke-width:1;stroke-linejoin:miter;stroke-miterlimit:10;"/><line x1="1556.378" y1="984.711" x2="1712.421" y2="984.711" style="stroke:#9CA3AF;stroke-width:1;"/><text x="1563.378" y="979.854" fill="#FFF" font-size="13" textLength="138.042">Send selected evidence</text><path d="M1702.421,996.711 L1762.592,996.711 L1762.592,1005.063 L1752.592,1015.063 L1702.421,1015.063 L1702.421,996.711" style="stroke:#000;stroke-width:1.5;" fill="#EEE"/><rect x="1702.421" y="996.711" width="273.45" height="169.594" fill="none" style="stroke:#000;stroke-width:1.5;"/><text x="1717.421" y="1011.206" fill="#FFF" font-size="13" textLength="15.171" font-weight="700">alt</text><text x="1777.592" y="1010.13" fill="#FFF" font-size="11" textLength="143.011" font-weight="700">[Short / medium reasoning]</text><polygon points="1851.103,1043.414,1861.103,1047.414,1851.103,1051.414,1855.103,1047.414" fill="#9CA3AF" style="stroke:#9CA3AF;stroke-width:1;stroke-linejoin:miter;stroke-miterlimit:10;"/><line x1="1718.421" y1="1047.414" x2="1857.103" y2="1047.414" style="stroke:#9CA3AF;stroke-width:1;"/><text x="1725.421" y="1042.558" fill="#FFF" font-size="13" textLength="101.899">Analyze evidence</text><polygon points="1729.421,1073.766,1719.421,1077.766,1729.421,1081.766,1725.421,1077.766" fill="#9CA3AF" style="stroke:#9CA3AF;stroke-width:1;stroke-linejoin:miter;stroke-miterlimit:10;"/><line x1="1723.421" y1="1077.766" x2="1862.103" y2="1077.766" style="stroke:#9CA3AF;stroke-width:1;stroke-dasharray:2,2;"/><text x="1735.421" y="1072.909" fill="#FFF" font-size="13" textLength="120.682">Structured reasoning</text><line x1="1702.421" y1="1086.766" x2="1975.871" y2="1086.766" style="stroke:#000;stroke-width:1;stroke-dasharray:2,2;"/><text x="1707.421" y="1100.185" fill="#FFF" font-size="11" textLength="180.27" font-weight="700">[Long-horizon reasoning required]</text><polygon points="1947.871,1123.953,1957.871,1127.953,1947.871,1131.953,1951.871,1127.953" fill="#9CA3AF" style="stroke:#9CA3AF;stroke-width:1;stroke-linejoin:miter;stroke-miterlimit:10;"/><line x1="1718.421" y1="1127.953" x2="1953.871" y2="1127.953" style="stroke:#9CA3AF;stroke-width:1;"/><text x="1725.421" y="1123.097" fill="#FFF" font-size="13" textLength="119.964">Analyze long context</text><polygon points="1729.421,1154.305,1719.421,1158.305,1729.421,1162.305,1725.421,1158.305" fill="#9CA3AF" style="stroke:#9CA3AF;stroke-width:1;stroke-linejoin:miter;stroke-miterlimit:10;"/><line x1="1723.421" y1="1158.305" x2="1958.871" y2="1158.305" style="stroke:#9CA3AF;stroke-width:1;stroke-dasharray:2,2;"/><text x="1735.421" y="1153.448" fill="#FFF" font-size="13" textLength="120.682">Structured reasoning</text><polygon points="2052.422,1198.656,2062.422,1202.656,2052.422,1206.656,2056.422,1202.656" fill="#9CA3AF" style="stroke:#9CA3AF;stroke-width:1;stroke-linejoin:miter;stroke-miterlimit:10;"/><line x1="1718.421" y1="1202.656" x2="2058.422" y2="1202.656" style="stroke:#9CA3AF;stroke-width:1;"/><text x="1725.421" y="1197.8" fill="#FFF" font-size="13" textLength="96.104">Semantic events</text><polygon points="2052.422,1229.008,2062.422,1233.008,2052.422,1237.008,2056.422,1233.008" fill="#9CA3AF" style="stroke:#9CA3AF;stroke-width:1;stroke-linejoin:miter;stroke-miterlimit:10;"/><line x1="1556.378" y1="1233.008" x2="2058.422" y2="1233.008" style="stroke:#9CA3AF;stroke-width:1;"/><text x="1563.378" y="1228.151" fill="#FFF" font-size="13" textLength="117.038">Deterministic events</text><polygon points="2052.422,1259.359,2062.422,1263.359,2052.422,1267.359,2056.422,1263.359" fill="#9CA3AF" style="stroke:#9CA3AF;stroke-width:1;stroke-linejoin:miter;stroke-miterlimit:10;"/><line x1="1376.29" y1="1263.359" x2="2058.422" y2="1263.359" style="stroke:#9CA3AF;stroke-width:1;"/><text x="1383.29" y="1258.503" fill="#FFF" font-size="13" textLength="118.53">Supporting evidence</text><polygon points="2272.99,1289.711,2282.99,1293.711,2272.99,1297.711,2276.99,1293.711" fill="#9CA3AF" style="stroke:#9CA3AF;stroke-width:1;stroke-linejoin:miter;stroke-miterlimit:10;"/><line x1="2064.422" y1="1293.711" x2="2278.99" y2="1293.711" style="stroke:#9CA3AF;stroke-width:1;"/><text x="2071.422" y="1288.854" fill="#FFF" font-size="13" textLength="196.568">Build event/evidence relationships</text><polygon points="384.84,1320.063,374.84,1324.063,384.84,1328.063,380.84,1324.063" fill="#9CA3AF" style="stroke:#9CA3AF;stroke-width:1;stroke-linejoin:miter;stroke-miterlimit:10;"/><line x1="378.84" y1="1324.063" x2="2283.99" y2="1324.063" style="stroke:#9CA3AF;stroke-width:1;stroke-dasharray:2,2;"/><text x="390.84" y="1319.206" fill="#FFF" font-size="13" textLength="98.274">Results available</text><polygon points="138.666,1350.414,128.666,1354.414,138.666,1358.414,134.666,1354.414" fill="#9CA3AF" style="stroke:#9CA3AF;stroke-width:1;stroke-linejoin:miter;stroke-miterlimit:10;"/><line x1="132.666" y1="1354.414" x2="372.84" y2="1354.414" style="stroke:#9CA3AF;stroke-width:1;stroke-dasharray:2,2;"/><text x="144.666" y="1349.558" fill="#FFF" font-size="13" textLength="169.095">Timeline + evidence + events</text><polygon points="115.666,1380.766,125.666,1384.766,115.666,1388.766,119.666,1384.766" fill="#9CA3AF" style="stroke:#9CA3AF;stroke-width:1;stroke-linejoin:miter;stroke-miterlimit:10;"/><line x1="27.779" y1="1384.766" x2="121.666" y2="1384.766" style="stroke:#9CA3AF;stroke-width:1;"/><text x="34.779" y="1379.909" fill="#FFF" font-size="13" textLength="71.544">Select event</text><polygon points="361.84,1411.117,371.84,1415.117,361.84,1419.117,365.84,1415.117" fill="#9CA3AF" style="stroke:#9CA3AF;stroke-width:1;stroke-linejoin:miter;stroke-miterlimit:10;"/><line x1="127.666" y1="1415.117" x2="367.84" y2="1415.117" style="stroke:#9CA3AF;stroke-width:1;"/><text x="134.666" y="1410.261" fill="#FFF" font-size="13" textLength="104.07">Request evidence</text><polygon points="138.666,1441.469,128.666,1445.469,138.666,1449.469,134.666,1445.469" fill="#9CA3AF" style="stroke:#9CA3AF;stroke-width:1;stroke-linejoin:miter;stroke-miterlimit:10;"/><line x1="132.666" y1="1445.469" x2="372.84" y2="1445.469" style="stroke:#9CA3AF;stroke-width:1;stroke-dasharray:2,2;"/><text x="144.666" y="1440.612" fill="#FFF" font-size="13" textLength="222.174">Frame + timestamp + track + evidence</text><?plantuml-src ZLPDRzms4BthLn3kqLXi71-Avc1WkruNBbp4sRMDtW9Acjrb8f4oIQsJdFeZyWlxI_hu8ObK7A0-MDJCuviXPzvehR0DiQVRwytVxDz_lhCdKPDYzrfLP8oG1xRjfHKjiHqzzoGhAWhpMSYEQzwoabUV3rhribwhHcdsovlhYukBNnE4EV9QlJYUFMyC9PwQzhnlx8sIDcn-EGgR0bPQgvV8-zjwTRcwAGfUMRm-6jAC6zRZMHH0Mr69ZalBphO427kyFVD-aJjlkB6h--3ZtSpvfohPXvvwykvdjye1j_90nWebFK0CRpbeLv4aTasMNAOUQPp9p3B10ObjLMyfWBHVvg2CfOulEUH1emAHmePr3dY_tgPXL3NphtRRS1r65pMtlEI6sDdcX2v0hTaE4SE5K3JDubFRASqRjf478GFIHjliOgZ5KrHfDYRQSkI75vANYwUxK0UypCk0xTAtwMMiX3Euz5IEt9m8ZvlU33NR--Lhv_n3y-xeCGUtAWhNMcnnXHPYxzXZroXUin025jZHFd3SlzyziAMt6pHdvrrZPm3mn1k1SCJEOJOTAXXP9j1YP0lIQybob-78vriHxhKcnzHDqloaoY9u9nBOFeewRXuEyFRDMxQgAkeirKXbmCIzUSexYpjCeXHfhbUncu4BtJbqTpGlvcHU3gMR45mBu7AoqFN0-QPWUwSAOA8PWA7hftYg_8I7AKRF8kK98B1dB54PlfA-6jvWYi6UKNX9CME1oqWW7NYTdWmr28ARZFawJqRXGAf41vrup2KxDRG6qEQB2s-N-2zDfKL9ZFUrK8Lpp-_n0HCOARKTeWuREfkcD-ZJLn2YZLVdmY_3SPT8Av2_WlQX9v4FvNm5wLqJiXW1xgA7SV2EhIHlldwZoJJj64sBVCjVwaGj9FjJm9tOK_MrQkYdY3MNTH0SEV6RDDZLE6_SMKZMKo6dt7XZsUwee80bb5YBlcMGdL7IAO7XR-HmoiHmIeuwiZYSzorcGQtkAzjhH9n82Pz5TgVaOO6muXlAFVgmUku5u3z4JcPUaa035bRXWqfVhD-ImlvNBX9J8OqJ9gQ_hsYCzvfUwmXowjEjaC8aoBG_9hg-mtRhpZZTVVG2vuSmOB_tega3qNBaqTG4MHr5Xm87x3G0jsJmim9Vj1CN3IyRcir29wK6tohCmP7oV6oNRExlV7y4NpRtj-wtaB5ftwGXmjVzdDb1jMxjnyeKi_WF?></g></svg>